<svg width="26" height="26" viewBox="0 0 26 26" fill="none" xmlns="http://www.w3.org/2000/svg">
<path d="M0 4C0 1.79086 1.79086 0 4 0H22C24.2091 0 26 1.79086 26 4V22C26 24.2091 24.2091 26 22 26H4C1.79086 26 0 24.2091 0 22V4Z" fill="#2E6BE5"/>
<path d="M8.925 14.5679C7.25357 14.1036 6 12.7571 6 10.8071C6 8.39286 7.99643 7 10.1321 7H20.3V9.925H14.3571V12.2H18.9536V15.0321H14.3571V19.0714H11.2V9.83214H10.0857C9.575 9.83214 8.97143 10.1571 8.97143 10.8071C8.97143 11.3179 9.29643 11.6429 9.71429 11.8286L8.925 14.5679Z" fill="white"/>
</svg>
