<svg width="37" height="24" viewBox="0 0 37 24" fill="none" xmlns="http://www.w3.org/2000/svg">
<path d="M36.6393 12.0181C36.6393 18.1578 31.538 23.1547 25.268 23.1547C22.6528 23.1547 20.242 22.2836 18.3188 20.8267C16.3966 22.2836 13.9857 23.1547 11.3707 23.1547C5.10096 23.1547 0 18.1579 0 12.0181C0 5.87779 5.10108 0.883789 11.3707 0.883789C13.9859 0.883789 16.3968 1.75164 18.3188 3.21059C20.2421 1.75164 22.653 0.883789 25.268 0.883789C31.5377 0.883789 36.6393 5.87826 36.6393 12.0181ZM25.2518 1.86691C22.9452 1.86691 20.8158 2.60695 19.0952 3.8558C20.6555 5.27782 21.8094 7.12444 22.3607 9.20554H21.3069C20.7669 7.36566 19.7115 5.74127 18.3022 4.4912C16.8943 5.74127 15.8382 7.36566 15.3003 9.20554H14.2448C14.7974 7.12444 15.9513 5.27782 17.5116 3.8558C15.7903 2.60695 13.6617 1.86691 11.3539 1.86691C5.63659 1.86691 1.00168 6.40565 1.00168 12.0059C1.00168 17.6046 5.63659 22.1449 11.3539 22.1449C13.6616 22.1449 15.7902 21.4049 17.5116 20.1561C16.0435 18.8171 14.9359 17.1015 14.3504 15.1705H15.416C15.9821 16.8614 16.9872 18.3538 18.3022 19.5205C19.6186 18.3538 20.6249 16.8614 21.1911 15.1705H22.2564C21.6699 17.1016 20.5626 18.8171 19.0952 20.1561C20.8155 21.4049 22.9449 22.1449 25.2517 22.1449C30.969 22.1449 35.6039 17.6047 35.6039 12.0059C35.604 6.40576 30.9692 1.86691 25.2518 1.86691Z" fill="#404040"/>
<path d="M7.23492 9.614H5.58611L4.55567 12.6084L4.51278 9.614H2.98479L2.15527 14.452H3.14964L3.78827 10.7558L3.87745 14.452H4.60191L5.95957 10.7337L5.35124 14.452H6.4132L7.23492 9.614ZM9.9716 14.4475H9.09135L9.11185 14.0392C8.84315 14.3616 8.48534 14.5158 7.99915 14.5158C7.42246 14.5158 7.02972 14.0768 7.02972 13.442C7.02972 12.4826 7.71464 11.925 8.89291 11.925C9.01366 11.925 9.16818 11.9359 9.32617 11.9557C9.35901 11.8248 9.36697 11.7698 9.36697 11.6994C9.36697 11.4398 9.18284 11.3419 8.68627 11.3419C8.16724 11.3353 7.73842 11.4619 7.56243 11.5191C7.57369 11.4531 7.71031 10.6346 7.71031 10.6346C8.23852 10.4828 8.58814 10.4256 8.98099 10.4256C9.89282 10.4256 10.3759 10.8238 10.3748 11.5785C10.3759 11.7809 10.342 12.0306 10.2889 12.3597C10.1964 12.9283 9.99891 14.1493 9.97172 14.4474V14.4475H9.9716ZM9.2255 12.7132C9.11381 12.7021 9.06515 12.6978 8.98844 12.6978C8.38577 12.6978 8.0821 12.8989 8.0821 13.2951C8.0821 13.5406 8.23113 13.6966 8.46133 13.6966C8.89481 13.6966 9.2061 13.2951 9.2255 12.7132ZM23.8781 9.50586C22.4706 9.50586 21.4864 10.7137 21.4864 12.4432C21.4864 13.728 22.1988 14.5311 23.3419 14.5311C23.6353 14.5311 23.8891 14.4937 24.2797 14.3881L24.4659 13.2868C24.1149 13.4553 23.8261 13.5355 23.564 13.5355C22.9467 13.5355 22.5741 13.091 22.5741 12.3571C22.5741 11.2912 23.1285 10.5442 23.9218 10.5442C24.2164 10.5442 24.4918 10.6191 24.8709 10.8062L25.0447 9.75676C24.8892 9.69725 24.3417 9.50586 23.8781 9.50586ZM27.6978 14.4475H26.8188L26.8391 14.0392C26.5693 14.3616 26.2104 14.5158 25.725 14.5158C25.1495 14.5158 24.7545 14.0768 24.7545 13.442C24.7545 12.4826 25.4418 11.925 26.6189 11.925C26.7397 11.925 26.8943 11.9359 27.0526 11.9557C27.085 11.8248 27.093 11.7698 27.093 11.6994C27.093 11.4398 26.9091 11.3419 26.4135 11.3419C25.8933 11.3353 25.4657 11.4619 25.2895 11.5191C25.2997 11.4531 25.4363 10.6346 25.4363 10.6346C25.9655 10.4828 26.3153 10.4256 26.7058 10.4256C27.6189 10.4256 28.102 10.8238 28.1008 11.5785C28.103 11.7809 28.0682 12.0306 28.0151 12.3597C27.9237 12.9283 27.7252 14.1493 27.6979 14.4474V14.4475H27.6978ZM26.9513 12.7132C26.8407 12.7021 26.7911 12.6978 26.7132 12.6978C26.1116 12.6978 25.8068 12.8989 25.8068 13.2951C25.8068 13.5406 25.9559 13.6966 26.1885 13.6966C26.6208 13.6966 26.9333 13.2951 26.9513 12.7132ZM15.1975 13.5357C15.1264 13.56 15.0328 13.573 14.912 13.573C14.6593 13.573 14.5476 13.4852 14.5476 13.2815C14.5499 13.1563 14.7248 12.2256 14.8467 11.4785H15.3916L15.5362 10.5324H14.9932L15.1162 9.93861H14.061C14.061 9.93861 13.6616 12.2543 13.6018 12.6205C13.534 13.0397 13.4484 13.4962 13.455 13.67C13.455 14.23 13.7507 14.5348 14.2934 14.5348C14.5397 14.5348 14.7662 14.4951 15.0577 14.4071L15.1975 13.5357ZM18.4418 14.3573C18.0784 14.4652 17.7284 14.5158 17.3584 14.5158C16.1754 14.5133 15.5594 13.9118 15.5594 12.76C15.5594 11.4156 16.3437 10.4255 17.408 10.4255C18.278 10.4255 18.8346 10.9789 18.8346 11.8501C18.8346 12.1383 18.7951 12.4189 18.7035 12.8183H16.6021C16.5311 13.3869 16.9059 13.6245 17.5198 13.6245C17.8977 13.6245 18.2375 13.5497 18.6167 13.3782L18.4418 14.3573ZM17.8884 12.0495C17.8952 11.9681 18 11.3452 17.3974 11.3452C17.061 11.3452 16.8196 11.5973 16.7227 12.0495H17.8884ZM10.8124 11.7567C10.8124 12.2551 11.0583 12.5972 11.6204 12.8558C12.0504 13.0537 12.1169 13.1109 12.1169 13.2904C12.1169 13.5343 11.9273 13.6445 11.5064 13.6445C11.1904 13.6445 10.8947 13.5982 10.5549 13.4905C10.5549 13.4905 10.4151 14.3574 10.4083 14.3993C10.651 14.45 10.8653 14.498 11.5143 14.5159C12.6348 14.5159 13.1519 14.0988 13.1519 13.2012C13.1519 12.6589 12.9362 12.3442 12.4034 12.1053C11.9589 11.9051 11.907 11.8612 11.907 11.6775C11.907 11.464 12.0841 11.3562 12.4283 11.3562C12.6359 11.3562 12.9215 11.3783 13.1901 11.4157L13.3414 10.5026C13.066 10.4608 12.6496 10.4256 12.4069 10.4256C11.2186 10.4255 10.8078 11.0295 10.8124 11.7567ZM33.6758 14.4521H32.6704L32.7211 14.0859C32.4288 14.3886 32.1299 14.5205 31.7416 14.5205C30.9695 14.5205 30.4595 13.8725 30.4595 12.889C30.4595 11.5787 31.2504 10.4765 32.1871 10.4765C32.5981 10.4765 32.9117 10.6393 33.202 11.0123L33.4366 9.61412H34.4841L33.6758 14.4521ZM32.1115 13.5504C32.6057 13.5504 32.9545 13.0035 32.9545 12.2246C32.9545 11.7241 32.7571 11.4534 32.3911 11.4534C31.9093 11.4534 31.5673 12.0002 31.5673 12.7736C31.5673 13.2896 31.7504 13.5504 32.1115 13.5504ZM28.8455 10.5222C28.7124 11.7389 28.4765 12.9721 28.2926 14.1911L28.244 14.4561H29.3049C29.6852 12.0503 29.7776 11.5806 30.3724 11.6399C30.4671 11.146 30.6432 10.716 30.7763 10.4982C30.3309 10.4078 30.0823 10.6543 29.7586 11.1197C29.7844 10.9172 29.8308 10.7225 29.8207 10.5222H28.8455ZM19.5415 10.5222C19.408 11.7389 19.1711 12.9721 18.9872 14.1911L18.9385 14.4561H20.0005C20.3808 12.0503 20.4722 11.5806 21.0669 11.6399C21.1628 11.146 21.34 10.716 21.4711 10.4982C21.0274 10.4078 20.7772 10.6543 20.453 11.1197C20.479 10.9172 20.5251 10.7225 20.5162 10.5222H19.5415Z" fill="#404040"/>
</svg>
