<svg width="76" height="21" viewBox="0 0 76 21" fill="none" xmlns="http://www.w3.org/2000/svg">
<path d="M12.8646 1.18329C11.912 0.528423 10.669 0.200195 9.13546 0.200195H3.19855C2.72844 0.200195 2.46871 0.435307 2.41937 0.904965L0.00757025 16.0438C-0.0174948 16.1925 0.0197057 16.3285 0.118832 16.4521C0.217391 16.5761 0.341355 16.6377 0.489818 16.6377H3.30981C3.80442 16.6377 4.07628 16.4031 4.12618 15.9327L4.79398 11.8514C4.81836 11.6536 4.90535 11.4928 5.05382 11.3689C5.20217 11.2453 5.38772 11.1643 5.61035 11.1273C5.83299 11.0906 6.04292 11.0721 6.24118 11.0721C6.43886 11.0721 6.67375 11.0846 6.94629 11.1092C7.21815 11.1339 7.39145 11.1459 7.46574 11.1459C9.59298 11.1459 11.2627 10.5465 12.475 9.34645C13.6868 8.14684 14.2933 6.48336 14.2933 4.35567C14.2933 2.89622 13.8167 1.83872 12.8646 1.18284V1.18329ZM9.80348 5.72903C9.6794 6.59496 9.35821 7.16364 8.83876 7.43584C8.3192 7.70838 7.57711 7.8438 6.6125 7.8438L5.38794 7.881L6.01888 3.91062C6.0681 3.63876 6.22881 3.50266 6.50113 3.50266H7.20635C8.19534 3.50266 8.91316 3.64523 9.35843 3.92922C9.80348 4.2139 9.95194 4.8141 9.80348 5.72903Z" fill="#404040"/>
<path d="M75.5172 0.200195H72.7716C72.4988 0.200195 72.3382 0.336297 72.2892 0.608383L69.8772 16.0444L69.84 16.1186C69.84 16.2429 69.8896 16.3598 69.9887 16.4712C70.0871 16.5822 70.2113 16.638 70.3597 16.638H72.8089C73.2782 16.638 73.5381 16.4035 73.5882 15.9331L76 0.756845V0.719985C75.9998 0.373724 75.8385 0.200536 75.5172 0.200536V0.200195Z" fill="#404040"/>
<path d="M42.3451 6.17668C42.3451 6.05328 42.2954 5.93555 42.197 5.8244C42.0978 5.71314 41.9864 5.65723 41.863 5.65723H39.0059C38.7333 5.65723 38.5107 5.78153 38.3379 6.02821L34.4047 11.817L32.7722 6.25108C32.6479 5.85548 32.376 5.65723 31.9558 5.65723H29.1726C29.0486 5.65723 28.9372 5.71303 28.8389 5.8244C28.7397 5.93555 28.6904 6.05339 28.6904 6.17668C28.6904 6.22658 28.9317 6.95596 29.4139 8.36596C29.8962 9.77618 30.4157 11.2976 30.9724 12.9303C31.529 14.5628 31.8194 15.429 31.8443 15.5273C29.8158 18.2981 28.8018 19.7825 28.8018 19.9801C28.8018 20.3019 28.9625 20.4625 29.2842 20.4625H32.1412C32.4133 20.4625 32.6359 20.3391 32.8093 20.0915L42.2713 6.43617C42.3204 6.38706 42.3451 6.30087 42.3451 6.17656V6.17668Z" fill="#404040"/>
<path d="M68.9507 5.65535H66.1306C65.784 5.65535 65.5744 6.06353 65.5002 6.8799C64.8563 5.89091 63.682 5.39551 61.9748 5.39551C60.1937 5.39551 58.6784 6.06353 57.4294 7.39935C56.18 8.73529 55.5557 10.3063 55.5557 12.1119C55.5557 13.5717 55.9822 14.7342 56.8356 15.5997C57.6889 16.4661 58.833 16.8985 60.2682 16.8985C60.9854 16.8985 61.7151 16.7498 62.4572 16.4532C63.1994 16.1564 63.7802 15.7608 64.2014 15.2658C64.2014 15.2907 64.1762 15.4017 64.1272 15.5995C64.0773 15.7977 64.053 15.9465 64.053 16.0448C64.053 16.441 64.2133 16.6384 64.5354 16.6384H67.0959C67.5652 16.6384 67.8378 16.4038 67.9117 15.9334L69.4332 6.24885C69.4576 6.10039 69.4206 5.96452 69.322 5.84067C69.2226 5.71738 69.0992 5.65535 68.9507 5.65535ZM64.1085 12.9653C63.4777 13.5837 62.717 13.8929 61.8266 13.8929C61.1089 13.8929 60.5281 13.6953 60.0826 13.2993C59.6371 12.9043 59.4144 12.36 59.4144 11.6665C59.4144 10.752 59.7237 9.97845 60.3423 9.34763C60.96 8.7168 61.7276 8.40139 62.6428 8.40139C63.3349 8.40139 63.9102 8.60554 64.3681 9.0135C64.8254 9.42169 65.0549 9.98468 65.0549 10.702C65.0548 11.5925 64.7392 12.3472 64.1085 12.9653Z" fill="#404040"/>
<path d="M26.7979 5.65535H23.9779C23.631 5.65535 23.4212 6.06353 23.3469 6.8799C22.679 5.89091 21.5039 5.39551 19.8218 5.39551C18.0407 5.39551 16.5254 6.06353 15.2763 7.39935C14.0269 8.73529 13.4026 10.3063 13.4026 12.1119C13.4026 13.5717 13.8293 14.7342 14.6828 15.5997C15.5363 16.4661 16.6801 16.8985 18.115 16.8985C18.8073 16.8985 19.5251 16.7498 20.2671 16.4532C21.0092 16.1564 21.6029 15.7608 22.0482 15.2658C21.949 15.5625 21.8997 15.8224 21.8997 16.0448C21.8997 16.441 22.0604 16.6384 22.3821 16.6384H24.9424C25.412 16.6384 25.6844 16.4038 25.7587 15.9334L27.28 6.24885C27.3044 6.10039 27.2673 5.96452 27.1687 5.84067C27.0697 5.71738 26.9462 5.65535 26.7979 5.65535ZM21.9555 12.9837C21.3246 13.5905 20.5512 13.8929 19.6365 13.8929C18.9187 13.8929 18.3436 13.6953 17.911 13.2993C17.4778 12.9043 17.2616 12.36 17.2616 11.6665C17.2616 10.752 17.5706 9.97845 18.1893 9.34763C18.8073 8.7168 19.5742 8.40139 20.4899 8.40139C21.1821 8.40139 21.7573 8.60554 22.2154 9.01361C22.6727 9.4218 22.9018 9.9848 22.9018 10.7022C22.9018 11.6173 22.5864 12.3782 21.9555 12.9837Z" fill="#404040"/>
<path d="M55.0172 1.18329C54.0647 0.528423 52.8219 0.200195 51.2882 0.200195H45.3882C44.8933 0.200195 44.621 0.435307 44.572 0.904965L42.16 16.0438C42.135 16.1926 42.1721 16.3286 42.2713 16.4522C42.3694 16.5761 42.4938 16.6377 42.6423 16.6377H45.6848C45.9816 16.6377 46.1794 16.4771 46.2785 16.1554L46.9466 11.8514C46.9711 11.6536 47.0577 11.4928 47.2063 11.3689C47.3548 11.2453 47.5401 11.1644 47.7629 11.1273C47.9855 11.0906 48.1953 11.0721 48.3938 11.0721C48.5915 11.0721 48.8263 11.0846 49.0985 11.1092C49.3706 11.1339 49.5444 11.1459 49.618 11.1459C51.7457 11.1459 53.4151 10.5465 54.6274 9.34645C55.8396 8.14684 56.4456 6.48336 56.4456 4.35567C56.4458 2.89633 55.9693 1.83884 55.0172 1.18295V1.18329ZM51.2139 7.28737C50.6696 7.65836 49.8532 7.8438 48.765 7.8438L47.5775 7.881L48.2083 3.91062C48.2573 3.63876 48.418 3.50266 48.6906 3.50266H49.3583C49.9024 3.50266 50.3352 3.52739 50.6573 3.57672C50.9784 3.62663 51.2882 3.78076 51.585 4.04048C51.8819 4.30032 52.0302 4.67766 52.0302 5.17238C52.0302 6.21128 51.7578 6.91616 51.2139 7.28737Z" fill="#404040"/>
</svg>
