<svg width="92" height="17" viewBox="0 0 92 17" fill="none" xmlns="http://www.w3.org/2000/svg">
<path fill-rule="evenodd" clip-rule="evenodd" d="M53.1322 14.9422C53.1467 14.7821 53.1467 14.5347 53.1613 14.1854V7.59238L53.1322 6.952C53.1322 6.86468 53.1322 6.7628 53.1176 6.67548C53.1176 6.63181 53.103 6.58815 53.0884 6.54449C53.0447 6.38439 52.9134 6.2534 52.7676 6.19519C52.5489 6.12242 52.3302 6.09331 52.0969 6.09331V5.875H55.8733C56.3691 5.875 56.8648 5.90411 57.3606 5.97688C57.7251 6.03509 58.0896 6.12242 58.4396 6.26796C59.2269 6.64636 59.6206 7.27219 59.606 8.15999C59.6206 9.44075 58.7749 10.2558 57.0252 10.4595L56.7336 10.5032C57.1273 10.5323 57.521 10.6051 57.9001 10.707C58.1479 10.7652 58.3958 10.8525 58.6291 10.9689C59.5477 11.4347 60.0143 12.1769 59.9997 13.2103C59.9997 14.4619 59.4019 15.2624 58.1625 15.6554C57.8272 15.7427 57.4918 15.8009 57.1419 15.83C56.7044 15.8737 56.2524 15.9028 55.8004 15.9028H52.0969V15.6845C52.5343 15.6845 52.826 15.6117 52.9718 15.4516C53.0301 15.4079 53.0593 15.3497 53.0884 15.277C53.1176 15.1751 53.1322 15.0586 53.1322 14.9422ZM54.2986 6.18064V10.3722H55.7713C57.4772 10.3577 58.3666 9.64451 58.3812 8.23276C58.3958 6.85012 57.4626 6.18064 55.64 6.18064H54.2986ZM58.6728 13.1084C58.6728 12.1333 58.3083 11.4347 57.6085 11.0563C57.346 10.9398 57.0835 10.8525 56.7919 10.8088C56.442 10.7506 56.0775 10.707 55.713 10.7215H54.2986V15.6117H55.713C56.7336 15.6117 57.4918 15.4225 57.9438 15.0295C58.1917 14.8258 58.3666 14.5492 58.4833 14.2436C58.6145 13.8798 58.6728 13.4868 58.6728 13.1084Z" fill="#404040"/>
<path d="M65.3942 15.6235C65.3212 15.478 65.2629 15.3034 65.2483 14.8376V14.6921L65.1609 14.794C65.0588 14.9104 64.9567 15.0123 64.8401 15.1142C64.7234 15.216 64.6068 15.3034 64.4756 15.3907C64.2131 15.5944 63.9215 15.74 63.6153 15.8564C63.3091 15.9437 63.0029 15.9874 62.6821 15.9874C62.0843 15.9874 61.6177 15.8419 61.2824 15.5653C61.0928 15.3907 60.947 15.1724 60.845 14.9395C60.7429 14.6775 60.6846 14.401 60.6846 14.1245C60.6992 13.0475 61.3553 12.3489 62.7113 12.0432C63.0904 11.9559 63.4695 11.8831 63.8486 11.8395C64.2423 11.7813 64.6943 11.7376 65.2046 11.7085L65.2483 10.777C65.2483 10.5151 65.2338 10.2531 65.2046 10.0057C65.1754 9.83101 65.1317 9.64181 65.0442 9.48171C64.8401 9.1033 64.4318 8.89955 63.8486 8.89955C62.9008 8.89955 62.3905 9.35073 62.3322 10.2385C62.3322 10.3404 62.3176 10.4423 62.303 10.5442C62.2884 10.6024 62.2593 10.646 62.2155 10.6751C62.0697 10.7479 61.9094 10.7916 61.7635 10.777C61.297 10.777 61.122 10.646 61.1366 10.4132C61.1366 10.1658 61.2241 9.91833 61.3844 9.71458C61.574 9.46716 61.7927 9.2634 62.0697 9.11786C62.5946 8.82678 63.2654 8.68124 64.0819 8.68124C64.9859 8.68124 65.5983 8.88499 65.9191 9.27795C66.0649 9.4526 66.1669 9.67092 66.2107 9.88923C66.2836 10.1949 66.3127 10.5151 66.3127 10.8207V10.908V11.2719L66.2982 12.2324L66.2836 13.5569L66.269 14.1972C66.269 14.5029 66.2836 14.7357 66.2982 14.9832C66.3273 15.2451 66.4148 15.5217 66.6044 15.5944C66.8668 15.6818 67.1293 15.7254 67.4063 15.7109C67.625 15.7109 67.8437 15.6818 68.0478 15.609C68.2228 15.5362 68.3395 15.3616 68.3686 15.1724C68.4124 14.8522 68.4415 14.532 68.4269 14.2118V10.4568C68.4415 9.94744 68.3686 9.58359 68.2374 9.40894C68.1062 9.23429 67.8291 9.14697 67.4646 9.14697V8.94321L69.4768 8.79767V10.3841L69.5788 10.1949C69.8121 9.74368 70.1621 9.35073 70.5849 9.0742C71.0077 8.84133 71.5035 8.7249 71.9992 8.73945C72.8595 8.7249 73.4427 9.01598 73.7927 9.58359C73.9239 9.78735 74.026 10.0202 74.0697 10.2676C74.128 10.6024 74.1572 10.9517 74.1426 11.301V14.1972C74.128 14.5174 74.1426 14.8376 74.2009 15.1578C74.2155 15.347 74.3467 15.5217 74.5217 15.5944C74.7696 15.6672 75.0174 15.6963 75.2653 15.6963C75.4695 15.6963 75.6736 15.6672 75.8631 15.5944C76.0381 15.5071 76.1547 15.347 76.1693 15.1578C76.2131 14.8376 76.2422 14.5174 76.2276 14.1972V7.38592C76.2422 7.09484 76.2276 6.80376 76.1839 6.52723C76.1693 6.35258 76.0381 6.20704 75.8777 6.13427C75.6736 6.07605 75.4549 6.04694 75.2362 6.0615V5.85774L77.3212 5.75586C77.292 6.22159 77.2775 6.68732 77.2629 7.16761C77.2483 7.677 77.2483 8.11363 77.2483 8.49203V13.0766L79.5521 10.5587C79.8728 10.1949 80.0478 9.88923 80.0624 9.65636C80.077 9.32162 79.7416 9.16152 79.173 9.14697V8.94321H82.0891V9.14697C81.9287 9.16152 81.7683 9.19063 81.6225 9.24884C81.4621 9.30706 81.3163 9.37983 81.1705 9.45261C81.0101 9.53993 80.8935 9.62725 80.7914 9.70002C80.6602 9.8019 80.529 9.91833 80.4123 10.0493C80.2665 10.1949 80.0624 10.4132 79.7854 10.7043L79.0272 11.5338L81.0101 14.6484C81.1705 14.9395 81.3892 15.2015 81.6371 15.4343C81.8412 15.5799 82.0891 15.6818 82.337 15.7109V15.9146H80.529C80.4852 15.8127 80.4123 15.6818 80.3248 15.5217L80.0332 14.9977L79.8145 14.6048L78.3419 12.2179L77.19 13.5132V14.2409C77.1754 14.5611 77.19 14.8813 77.2337 15.2015C77.2483 15.3907 77.3795 15.5508 77.5399 15.6381C77.744 15.7109 77.9628 15.74 78.1815 15.74V15.9437H72.043V15.74C72.4512 15.7254 72.7429 15.6672 72.8595 15.5071C72.9032 15.4489 72.9324 15.3761 72.9616 15.3034C72.9907 15.2015 73.0053 15.1141 73.0053 15.0123C73.0053 14.9249 73.0199 14.7794 73.0345 14.6048C73.049 14.4301 73.049 14.3137 73.049 14.2409V11.4174C73.049 10.7188 72.9761 10.2094 72.8158 9.88923C72.5825 9.37983 72.145 9.11786 71.5326 9.11786C70.8473 9.11786 70.3079 9.43805 69.8996 10.0784C69.7392 10.3404 69.6226 10.6169 69.5497 10.908C69.4622 11.1991 69.4184 11.5047 69.4184 11.8249V14.2555C69.4039 14.5757 69.4184 14.8958 69.4768 15.216C69.4913 15.4052 69.6226 15.5799 69.7975 15.6526C70.0017 15.7254 70.235 15.7545 70.4537 15.7545V15.9583H67.4355C67.173 15.9583 66.6627 15.9728 66.4002 15.9728C66.1524 15.9728 66.0065 15.9437 65.7587 15.9146C65.5545 15.8273 65.4671 15.7691 65.3942 15.6235ZM61.8219 14.0808C61.8073 14.4738 61.9239 14.8667 62.1572 15.1869C62.3759 15.4634 62.6967 15.6235 63.0466 15.6235C63.8048 15.609 64.4901 15.216 64.8838 14.5756C65.0151 14.3282 65.1025 14.0808 65.1317 13.8043C65.19 13.4259 65.2192 13.0329 65.2046 12.64V11.9122C64.6943 11.9559 64.1985 12.0141 63.7028 12.116C63.382 12.1742 63.0612 12.2907 62.7696 12.4362C62.1426 12.7564 61.8219 13.3094 61.8219 14.0808Z" fill="#404040"/>
<path fill-rule="evenodd" clip-rule="evenodd" d="M2.74118 11.6958V14.1845C2.7266 14.4901 2.75576 14.7812 2.81409 15.0723C2.85783 15.247 2.97447 15.3925 3.14944 15.4653C3.4119 15.538 3.67435 15.5817 3.9368 15.5672V15.9164H0V15.5672C0.247873 15.5672 0.495745 15.538 0.743618 15.4653C0.904006 15.3925 1.02065 15.247 1.04981 15.0723C1.10814 14.7812 1.1373 14.4756 1.12272 14.1845V7.62061C1.1373 7.31497 1.10814 7.02389 1.0644 6.73281C1.03523 6.55816 0.918587 6.41262 0.758199 6.3544C0.524907 6.26708 0.291615 6.23797 0.0583232 6.23797V5.88867H3.791C5.05952 5.88867 5.97811 6.10698 6.56134 6.55816C7.14457 7.00933 7.43618 7.72249 7.43618 8.68306C7.43618 10.0366 6.91128 10.9244 5.84688 11.3465C5.49694 11.4774 5.14701 11.5648 4.78249 11.6084C4.30132 11.6666 3.82016 11.7103 3.33899 11.6958H2.74118ZM2.74118 11.3028H3.38273C4.15551 11.3028 4.73874 11.1281 5.10326 10.7497C5.32197 10.5169 5.46778 10.2258 5.55527 9.92016C5.65733 9.54175 5.71565 9.14879 5.70107 8.74127C5.70107 7.09666 4.97204 6.26708 3.52854 6.26708H2.7266V11.3028H2.74118Z" fill="#404040"/>
<path fill-rule="evenodd" clip-rule="evenodd" d="M13.7643 12.1027H9.18595C9.18595 12.5103 9.21511 12.9178 9.27344 13.3253C9.31718 13.6309 9.40466 13.9366 9.52131 14.2276C9.90041 15.1009 10.4982 15.5521 11.2856 15.5521C11.723 15.5521 12.1604 15.4211 12.5104 15.1591C12.904 14.868 13.2102 14.4751 13.429 14.0239L13.7497 14.2276C13.4873 14.7952 13.0936 15.2755 12.5833 15.6248C12.0729 15.9305 11.4897 16.0906 10.9065 16.0615C9.87125 16.0469 8.90892 15.7122 8.31111 15.0718C7.71329 14.4314 7.4071 13.529 7.39252 12.3938C7.4071 11.2586 7.69871 10.3562 8.28194 9.68676C8.86517 9.01727 9.78376 8.68252 10.7753 8.66797C11.4314 8.66797 12.0729 8.82806 12.5249 9.11915C12.9915 9.43934 13.3415 9.89051 13.531 10.429C13.6039 10.6473 13.6622 10.8656 13.6914 11.084C13.7351 11.4187 13.7643 11.7389 13.7643 12.0736M9.18595 11.7098H12.0584C12.0438 11.3023 12.0292 10.9675 11.9855 10.7055C11.9563 10.4727 11.9126 10.2544 11.8251 10.0361C11.5918 9.33746 11.2127 8.98816 10.7169 8.98816C10.1629 8.98816 9.74002 9.38112 9.46298 10.167C9.39008 10.3854 9.33176 10.6037 9.28802 10.8365C9.24427 11.1276 9.20053 11.4187 9.18595 11.7098Z" fill="#404040"/>
<path d="M14.0554 8.88564L16.5924 8.711C16.607 8.97297 16.6216 9.17673 16.6216 9.35138C16.6216 9.52603 16.6362 9.67157 16.6362 9.80255V10.2101C17.1903 9.20583 17.8464 8.69644 18.6338 8.68189C18.9399 8.66733 19.2316 8.78377 19.4503 8.97297C19.6544 9.16217 19.771 9.42415 19.771 9.70067C19.771 9.93354 19.6836 10.1519 19.494 10.2974C19.2899 10.4575 19.042 10.5303 18.7941 10.5303C18.4442 10.5303 18.2401 10.3993 18.1526 10.0936C18.1234 9.96265 18.0651 9.83166 17.9922 9.71523C17.9339 9.64246 17.8464 9.61335 17.7589 9.6279H17.7297C17.4673 9.65701 17.2194 9.86077 16.9715 10.2683C16.8549 10.472 16.782 10.7049 16.7237 10.9232C16.6653 11.1997 16.6362 11.4763 16.6362 11.7674V14.2561C16.6216 14.5472 16.6508 14.8383 16.6945 15.1294C16.7091 15.304 16.8257 15.435 16.9861 15.4932C17.2194 15.566 17.4673 15.5951 17.7006 15.5951V15.9153H13.9971V15.5951C14.2304 15.6096 14.4637 15.5805 14.6824 15.5078C14.8428 15.435 14.9448 15.2895 14.974 15.1294C15.0323 14.8383 15.0469 14.5472 15.0323 14.2561V10.5157C15.0469 9.96265 14.9886 9.5988 14.8719 9.4387C14.7553 9.27861 14.4782 9.19128 14.07 9.22039L14.0554 8.88564Z" fill="#404040"/>
<path d="M22.7894 8.71011L22.804 10.0491C23.3434 9.16128 24.1308 8.69555 25.1515 8.69555C26.1721 8.69555 26.8282 9.16128 27.0615 10.1073C27.3094 9.67068 27.6448 9.30682 28.0676 9.03029C28.4613 8.79743 28.9133 8.681 29.3799 8.69555C30.1818 8.69555 30.765 8.95752 31.1296 9.48147C31.2899 9.69978 31.392 9.93265 31.4503 10.1946C31.5232 10.5585 31.5524 10.9223 31.5378 11.3007V14.2698C31.5232 14.5609 31.5524 14.8519 31.5961 15.143C31.6253 15.3177 31.7274 15.4487 31.8878 15.5214C32.1065 15.5942 32.3398 15.6233 32.5585 15.6088V15.9289H28.9133V15.6088C29.132 15.6233 29.3507 15.5942 29.5694 15.5214C29.7152 15.4487 29.8173 15.3031 29.8465 15.143C29.8902 14.8519 29.9194 14.5609 29.9048 14.2698V11.3153C29.9048 10.6021 29.8173 10.0927 29.6423 9.78711C29.4674 9.48147 29.132 9.29227 28.7821 9.32138C28.3009 9.32138 27.9072 9.55424 27.5719 10.0636C27.2948 10.4712 27.149 10.9369 27.149 11.4317V14.2843C27.1344 14.5754 27.1636 14.8665 27.2073 15.1576C27.2219 15.3177 27.3386 15.4632 27.4844 15.536C27.7031 15.6088 27.9218 15.6379 28.1405 15.6233V15.9435H24.5245V15.6233C24.7432 15.6379 24.9619 15.6088 25.1806 15.536C25.3264 15.4632 25.4285 15.3177 25.4576 15.1576C25.5014 14.8665 25.516 14.5754 25.516 14.2843V11.3153C25.516 9.97631 25.1515 9.32138 24.4224 9.33593C23.9558 9.35049 23.533 9.5979 23.2705 9.99087C22.9498 10.442 22.7748 10.9951 22.7894 11.5482V14.2843C22.7748 14.5754 22.804 14.881 22.8477 15.1721C22.8623 15.3322 22.9789 15.4778 23.1247 15.5505C23.3289 15.6233 23.5622 15.6379 23.7809 15.6379V15.958H20.1211V15.6379C20.3544 15.6524 20.5877 15.6233 20.8064 15.5505C20.9668 15.4778 21.0688 15.3322 21.0834 15.1721C21.1417 14.881 21.1563 14.59 21.1417 14.2843V10.5439C21.1563 9.99087 21.1126 9.64157 20.9814 9.48147C20.8501 9.32138 20.5731 9.24861 20.1503 9.24861V8.92842L22.7894 8.71011Z" fill="#404040"/>
<path d="M42.1528 9.32277V13.82C42.1528 14.0674 42.1528 14.3003 42.182 14.5477C42.1966 14.7078 42.2257 14.8679 42.2841 15.028C42.3278 15.1735 42.4299 15.3045 42.5465 15.3918C42.6632 15.4792 42.7944 15.5228 42.9402 15.5374C43.2318 15.5374 43.5526 15.3918 43.8879 15.1153L44.0775 15.45C43.5672 15.8867 42.911 16.1341 42.2257 16.1195C41.4821 16.105 40.9718 15.8576 40.6948 15.3773C40.6364 15.2608 40.6073 15.1299 40.5781 15.0134C40.5489 14.8242 40.5198 14.6496 40.5198 14.4604C40.5052 14.2275 40.5052 13.9219 40.5052 13.5144V9.30822H39.7324V8.91525C39.9949 8.91525 40.2427 8.84248 40.476 8.72605C40.6948 8.59506 40.8843 8.42041 41.0009 8.2021C41.1176 8.0129 41.2197 7.80914 41.2926 7.59083C41.38 7.3143 41.453 7.03778 41.4967 6.76125L42.1674 6.68848C42.1528 6.86313 42.1528 7.05233 42.1382 7.22698C42.1237 7.40163 42.1237 7.63449 42.1237 7.88191C42.1237 8.12933 42.1237 8.47863 42.1237 8.87159H43.7567V9.30822H42.1528V9.32277Z" fill="#404040"/>
<path fill-rule="evenodd" clip-rule="evenodd" d="M39.7327 15.6248V15.9159C39.339 15.945 39.1786 15.945 38.7704 15.945C38.4496 15.9596 38.1288 15.9305 37.8226 15.8286C37.6622 15.7849 37.531 15.6976 37.4144 15.5666C37.3269 15.4211 37.2686 15.4211 37.2394 15.0136C36.9332 15.3629 36.5687 15.6394 36.1458 15.8431C35.7667 16.0178 35.3439 16.1197 34.9211 16.1051C34.2795 16.0906 33.7692 15.9159 33.4047 15.5666C33.0401 15.2173 32.8506 14.737 32.8506 14.1258C32.8506 12.976 33.565 12.2483 35.0085 11.9718C35.7376 11.8408 36.4812 11.7534 37.2248 11.7098V10.8365C37.2394 10.1379 37.1519 9.6431 37.0061 9.38112C36.8603 9.11915 36.5833 8.97361 36.175 8.98816C35.7522 8.97361 35.446 9.1337 35.271 9.45389C35.1981 9.57033 35.1543 9.68676 35.1252 9.81775C35.096 10.007 35.0669 10.2107 35.0523 10.3999C35.0669 10.5891 34.9794 10.7783 34.8482 10.9093C34.6732 11.0257 34.4545 11.0694 34.2358 11.0548C33.6088 11.0548 33.288 10.8365 33.288 10.429C33.288 10.1816 33.3755 9.94873 33.5067 9.74498C33.6671 9.51211 33.8858 9.3229 34.1191 9.17736C34.6878 8.82806 35.4168 8.66797 36.3354 8.66797C37.254 8.66797 37.9247 8.84262 38.3329 9.22103C38.5225 9.39568 38.6537 9.62854 38.7412 9.87596C38.8287 10.2107 38.8724 10.5455 38.8724 10.8947L38.8579 12.0591L38.8433 13.2234C38.8287 13.6018 38.8287 13.8492 38.8287 13.9511C38.8141 14.3004 38.8287 14.6643 38.8724 15.0136C38.887 15.1882 38.9599 15.3483 39.0911 15.4502C39.2807 15.5957 39.514 15.6394 39.7327 15.6248ZM37.2248 13.0633V12.0154C36.2625 12.0882 35.5772 12.2628 35.1689 12.5539C34.7607 12.845 34.5711 13.2962 34.5857 13.922C34.5711 14.3295 34.6732 14.7225 34.8773 15.0718C35.0523 15.3483 35.3439 15.5084 35.6793 15.5084C35.9563 15.5084 36.2187 15.4211 36.4375 15.2755C36.6707 15.1154 36.8603 14.8826 36.9915 14.6206C37.079 14.4168 37.1519 14.2131 37.1811 13.9948C37.2102 13.6891 37.2248 13.3689 37.2248 13.0633Z" fill="#404040"/>
<path fill-rule="evenodd" clip-rule="evenodd" d="M51.3528 15.624V15.915C50.9591 15.9441 50.7987 15.9441 50.3905 15.9441C50.0697 15.9587 49.7489 15.9296 49.4427 15.8277C49.2824 15.784 49.1511 15.6967 49.0345 15.5657C48.947 15.4202 48.8887 15.4202 48.8595 15.0127C48.5533 15.362 48.1888 15.6385 47.766 15.8423C47.3869 16.0169 46.964 16.1188 46.5412 16.1042C45.885 16.0897 45.3893 15.915 45.0248 15.5657C44.6603 15.2164 44.4707 14.7361 44.4707 14.1249C44.4707 12.9751 45.1852 12.2474 46.6287 11.9709C47.3577 11.8399 48.1013 11.7526 48.8449 11.7089V10.8357C48.8449 10.1371 48.772 9.64221 48.6262 9.38024C48.4804 9.11827 48.1888 8.97272 47.7951 9.00183C47.3723 8.98728 47.0661 9.14737 46.8911 9.45301C46.8182 9.56944 46.7745 9.70043 46.7453 9.83141C46.7016 10.0206 46.687 10.2244 46.6724 10.4136C46.687 10.6028 46.5995 10.792 46.4683 10.923C46.2787 11.0394 46.0746 11.0831 45.8559 11.0685C45.2289 11.0685 44.9081 10.8648 44.9081 10.4427C44.9081 10.1953 44.981 9.9624 45.1268 9.75864C45.2872 9.52578 45.5059 9.33658 45.7392 9.19103C46.3079 8.84174 47.0369 8.68164 47.9555 8.68164C48.8741 8.68164 49.5448 8.85629 49.9531 9.2347C50.1426 9.40935 50.2738 9.64221 50.3613 9.88963C50.4488 10.2244 50.4926 10.5591 50.478 10.9084L50.4634 12.0727L50.4488 13.2516C50.4342 13.63 50.4342 13.8775 50.4342 13.9793C50.4196 14.3286 50.4342 14.6925 50.478 15.0418C50.478 15.2164 50.5655 15.3765 50.6967 15.493C50.8862 15.6094 51.1195 15.6531 51.3528 15.624ZM48.8303 13.077V12.0436C47.868 12.1019 47.1827 12.2911 46.7745 12.5821C46.3662 12.8732 46.1766 13.3244 46.1912 13.9502C46.1766 14.3577 46.2787 14.7507 46.4828 15.1C46.6578 15.3765 46.9494 15.5366 47.2848 15.5366C47.5618 15.5366 47.8243 15.4493 48.043 15.3038C48.2763 15.1437 48.4658 14.9108 48.5825 14.6488C48.6845 14.4451 48.7429 14.2413 48.772 14.023C48.8158 13.7028 48.8303 13.3826 48.8303 13.077Z" fill="#404040"/>
<path d="M88.9883 2.31348L91.9004 3.64941L91.9062 4.02832L91.9053 4.0293L87.1318 11.2461L86.9111 11.3027V11.3018L86.8799 11.2891L86.8105 11.125L88.7363 2.45801V2.45215L88.7383 2.45605L88.9883 2.31348Z" fill="#404040"/>
<path d="M88.6289 0.246094L86.8418 6.19629L86.7344 6.25977H86.7285V6.25879L86.6025 6.18359L84.5498 0.258789L84.6631 0.0380859L88.3887 0L88.6289 0.246094Z" fill="#404040"/>
<path d="M84.6006 2.66113L86.5205 9.07129L86.4385 9.2168L86.4189 9.22852L86.417 9.22754L86.418 9.22852L86.3936 9.22363L86.2607 9.2041L81.9736 4.18555L81.7578 3.93359H81.7588L81.7715 3.70117L84.2783 2.44043L84.6006 2.66113Z" fill="#404040"/>
</svg>
