<svg width="45" height="45" viewBox="0 0 45 45" fill="none" xmlns="http://www.w3.org/2000/svg">
<rect width="45" height="45" rx="10" fill="#EB4E12"/>
<path d="M18.9995 20C17.7853 20.9122 17 22.3644 17 24C17 26.7614 19.2386 29 22 29C23.6358 29 25.0882 28.2144 26.0004 27M14.4293 24.5C13.5452 25.4019 13 26.6373 13 28C13 30.7614 15.2386 33 18 33C19.3987 33 20.6633 32.4257 21.5707 31.5M33 19C33 22.3137 30.3137 25 27 25C23.6863 25 21 22.3137 21 19C21 15.6863 23.6863 13 27 13C30.3137 13 33 15.6863 33 19Z" stroke="#161616" stroke-width="2"/>
</svg>
