<svg width="45" height="45" viewBox="0 0 45 45" fill="none" xmlns="http://www.w3.org/2000/svg">
<rect width="45" height="45" rx="10" fill="#EB4E12"/>
<path d="M17.8419 16.4743L16.8932 16.1581V16.1581L17.8419 16.4743ZM19.1581 16.4743L20.1068 16.1581V16.1581L19.1581 16.4743ZM21 13V14H25V13V12H21V13ZM33 21H32V25H33H34V21H33ZM25 33V32H21V33V34H25V33ZM13 25H14V21H13H12V25H13ZM21 33V32C19.0861 32 17.7513 31.9979 16.7442 31.8625C15.7658 31.7309 15.2477 31.4903 14.8787 31.1213L14.1716 31.8284L13.4645 32.5355C14.267 33.3381 15.2775 33.6833 16.4777 33.8446C17.649 34.0021 19.1427 34 21 34V33ZM13 25H12C12 26.8573 11.9979 28.351 12.1554 29.5223C12.3167 30.7225 12.6619 31.733 13.4645 32.5355L14.1716 31.8284L14.8787 31.1213C14.5097 30.7523 14.2691 30.2342 14.1375 29.2558C14.0021 28.2487 14 26.9139 14 25H13ZM33 25H32C32 26.9139 31.9979 28.2487 31.8625 29.2558C31.7309 30.2342 31.4903 30.7523 31.1213 31.1213L31.8284 31.8284L32.5355 32.5355C33.3381 31.733 33.6833 30.7225 33.8446 29.5223C34.0021 28.351 34 26.8573 34 25H33ZM25 33V34C26.8573 34 28.351 34.0021 29.5223 33.8446C30.7225 33.6833 31.733 33.3381 32.5355 32.5355L31.8284 31.8284L31.1213 31.1213C30.7523 31.4903 30.2342 31.7309 29.2558 31.8625C28.2487 31.9979 26.9139 32 25 32V33ZM25 13V14C26.9139 14 28.2487 14.0021 29.2558 14.1375C30.2342 14.2691 30.7523 14.5097 31.1213 14.8787L31.8284 14.1716L32.5355 13.4645C31.733 12.6619 30.7225 12.3167 29.5223 12.1554C28.351 11.9979 26.8573 12 25 12V13ZM33 21H34C34 19.1427 34.0021 17.649 33.8446 16.4777C33.6833 15.2775 33.3381 14.267 32.5355 13.4645L31.8284 14.1716L31.1213 14.8787C31.4903 15.2477 31.7309 15.7658 31.8625 16.7442C31.9979 17.7513 32 19.0861 32 21H33ZM21 13V12C19.1427 12 17.649 11.9979 16.4777 12.1554C15.2775 12.3167 14.267 12.6619 13.4645 13.4645L14.1716 14.1716L14.8787 14.8787C15.2477 14.5097 15.7658 14.2691 16.7442 14.1375C17.7513 14.0021 19.0861 14 21 14V13ZM13 21H14C14 19.0861 14.0021 17.7513 14.1375 16.7442C14.2691 15.7658 14.5097 15.2477 14.8787 14.8787L14.1716 14.1716L13.4645 13.4645C12.6619 14.267 12.3167 15.2775 12.1554 16.4777C11.9979 17.649 12 19.1427 12 21H13ZM16 22L16.9487 22.3162L18.7906 16.7906L17.8419 16.4743L16.8932 16.1581L15.0513 21.6838L16 22ZM19.1581 16.4743L18.2094 16.7906L20.0513 22.3162L21 22L21.9487 21.6838L20.1068 16.1581L19.1581 16.4743ZM18.5 16V17C18.3682 17 18.2511 16.9156 18.2094 16.7906L19.1581 16.4743L20.1068 16.1581C19.8763 15.4665 19.229 15 18.5 15V16ZM17.8419 16.4743L18.7906 16.7906C18.7489 16.9156 18.6318 17 18.5 17V16V15C17.771 15 17.1237 15.4665 16.8932 16.1581L17.8419 16.4743ZM17 20V21H20V20V19H17V20ZM24 21V22H30V21V20H24V21ZM16 25V26H30V25V24H16V25ZM16 29V30H30V29V28H16V29Z" fill="#161616"/>
</svg>
