<svg width="45" height="45" viewBox="0 0 45 45" fill="none" xmlns="http://www.w3.org/2000/svg">
<rect width="45" height="45" rx="10" fill="#EB4E12"/>
<path d="M23 17V25M23 25L17.5 29M23 25L28.5 29M25.5 15.5C25.5 16.8807 24.3807 18 23 18C21.6193 18 20.5 16.8807 20.5 15.5C20.5 14.1193 21.6193 13 23 13C24.3807 13 25.5 14.1193 25.5 15.5ZM18 30.5C18 31.8807 16.8807 33 15.5 33C14.1193 33 13 31.8807 13 30.5C13 29.1193 14.1193 28 15.5 28C16.8807 28 18 29.1193 18 30.5ZM33 30.5C33 31.8807 31.8807 33 30.5 33C29.1193 33 28 31.8807 28 30.5C28 29.1193 29.1193 28 30.5 28C31.8807 28 33 29.1193 33 30.5Z" stroke="#161616" stroke-width="2"/>
</svg>
