<svg width="54" height="17" viewBox="0 0 54 17" fill="none" xmlns="http://www.w3.org/2000/svg">
<path d="M19.0774 16.6019L21.8088 0.573763H26.1778L23.4443 16.6019H19.0774ZM39.228 0.919282C38.3625 0.59456 37.0061 0.246094 35.3125 0.246094C30.9956 0.246094 27.9547 2.41991 27.9289 5.53556C27.9044 7.83874 30.0997 9.12355 31.7568 9.89024C33.4574 10.6758 34.029 11.1768 34.021 11.8784C34.0102 12.9527 32.663 13.4436 31.4073 13.4436C29.6587 13.4436 28.7297 13.2007 27.2949 12.6022L26.7319 12.3476L26.1187 15.9357C27.1392 16.383 29.0262 16.7706 30.9853 16.7907C35.5778 16.7907 38.5589 14.6418 38.5929 11.3146C38.6092 9.49134 37.4454 8.10378 34.9248 6.9598C33.3978 6.21841 32.4626 5.72355 32.4725 4.97282C32.4725 4.30659 33.2641 3.5941 34.9744 3.5941C36.4031 3.572 37.4381 3.88354 38.2444 4.20818L38.6359 4.39322L39.228 0.919282ZM50.4704 0.573517H47.0945C46.0487 0.573517 45.266 0.859021 44.8068 1.9027L38.3186 16.5913H42.9062C42.9062 16.5913 43.6562 14.6162 43.8258 14.1827C44.3273 14.1827 48.7839 14.1896 49.4211 14.1896C49.5518 14.7507 49.9525 16.5913 49.9525 16.5913H54.0065L50.4704 0.573026V0.573517ZM45.1142 10.9235C45.4755 10 46.8549 6.443 46.8549 6.443C46.8291 6.48573 47.2135 5.51501 47.4341 4.91322L47.7293 6.29521C47.7293 6.29521 48.566 10.1212 48.7408 10.9235H45.1142ZM15.3685 0.573517L11.0913 11.504L10.6355 9.28272C9.83925 6.72219 7.35839 3.94805 4.58499 2.55918L8.4959 16.5764L13.1183 16.5712L19.9963 0.573353H15.3685" fill="#404040"/>
<path d="M7.10049 0.573571H0.0557578L0 0.907053C5.48065 2.23378 9.10712 5.43998 10.6128 9.29202L9.08092 1.92641C8.81646 0.911556 8.04952 0.608695 7.10065 0.573242" fill="#404040"/>
</svg>
