<svg width="45" height="45" viewBox="0 0 45 45" fill="none" xmlns="http://www.w3.org/2000/svg">
<rect width="45" height="45" rx="10" fill="#EB4E12"/>
<path d="M22 29H21V33H22H23V29H22ZM18 33V34H22V33V32H18V33ZM22 33V34H26V33V32H22V33ZM27 29.0001V28.0001H17V29.0001V30.0001H27V29.0001ZM13 25.0001H14V20.0001H13H12V25.0001H13ZM17 29.0001V28.0001C16.0289 28.0001 15.4012 27.9979 14.9387 27.9358C14.505 27.8774 14.369 27.7833 14.2929 27.7072L13.5858 28.4143L12.8787 29.1214C13.3883 29.631 14.0167 29.8298 14.6722 29.9179C15.299 30.0022 16.0855 30.0001 17 30.0001V29.0001ZM13 25.0001H12C12 25.9146 11.9979 26.7011 12.0821 27.3279C12.1703 27.9834 12.369 28.6117 12.8787 29.1214L13.5858 28.4143L14.2929 27.7072C14.2168 27.631 14.1226 27.4951 14.0643 27.0614C14.0021 26.5989 14 25.9711 14 25.0001H13ZM31 25.0001H30C30 25.9711 29.9979 26.5989 29.9357 27.0614C29.8774 27.4951 29.7832 27.631 29.7071 27.7072L30.4142 28.4143L31.1213 29.1214C31.631 28.6117 31.8297 27.9834 31.9179 27.3279C32.0021 26.7011 32 25.9146 32 25.0001H31ZM27 29.0001V30.0001C27.9145 30.0001 28.701 30.0022 29.3278 29.9179C29.9833 29.8298 30.6117 29.631 31.1213 29.1214L30.4142 28.4143L29.7071 27.7072C29.631 27.7833 29.495 27.8774 29.0613 27.9358C28.5988 27.9979 27.9711 28.0001 27 28.0001V29.0001ZM17 16.0001V15.0001C16.0855 15.0001 15.299 14.9979 14.6722 15.0822C14.0167 15.1703 13.3883 15.3691 12.8787 15.8787L13.5858 16.5858L14.2929 17.293C14.369 17.2168 14.505 17.1227 14.9387 17.0644C15.4012 17.0022 16.0289 17.0001 17 17.0001V16.0001ZM13 20.0001H14C14 19.029 14.0021 18.4013 14.0643 17.9388C14.1226 17.505 14.2168 17.3691 14.2929 17.293L13.5858 16.5858L12.8787 15.8787C12.369 16.3884 12.1703 17.0168 12.0821 17.6723C11.9979 18.299 12 19.0855 12 20.0001H13ZM31 25.0001H32V20.0001H31H30V25.0001H31ZM30 12H29V18H30H31V12H30ZM27 15V16H33V15V14H27V15ZM17 16.0001V17.0001H25V16.0001V15.0001H17V16.0001Z" fill="#161616"/>
</svg>
