<svg width="12" height="11" viewBox="0 0 12 11" fill="none" xmlns="http://www.w3.org/2000/svg">
<path d="M5.02934 0.927051C5.32869 0.00573969 6.6321 0.00574017 6.93145 0.927051L7.54759 2.82333C7.68146 3.23535 8.06542 3.51432 8.49864 3.51432H10.4925C11.4612 3.51432 11.864 4.75393 11.0803 5.32333L9.46722 6.4953C9.11674 6.74994 8.97008 7.20131 9.10395 7.61333L9.72009 9.50961C10.0194 10.4309 8.96496 11.197 8.18125 10.6276L6.56818 9.45568C6.21769 9.20104 5.74309 9.20104 5.39261 9.45568L3.77953 10.6276C2.99582 11.197 1.94134 10.4309 2.24069 9.50961L2.85683 7.61333C2.99071 7.20131 2.84405 6.74994 2.49356 6.4953L0.880486 5.32333C0.096772 4.75393 0.499547 3.51432 1.46827 3.51432H3.46214C3.89537 3.51432 4.27932 3.23535 4.4132 2.82333L5.02934 0.927051Z" fill="#EEAE23"/>
</svg>
