<svg width="135" height="51" viewBox="0 0 135 51" fill="none" xmlns="http://www.w3.org/2000/svg">
<g clip-path="url(#clip0_0_398)">
<path d="M0.317522 51C0.126565 51 0 50.8729 0 50.6811V0.318903C0 0.127115 0.126565 0 0.317522 0H7.9336C8.12456 0 8.25112 0.127115 8.25112 0.318903V21.3554H9.52121L13.5846 0.318903C13.649 0.127115 13.7756 0 13.9665 0H21.8379C22.0289 0 22.1555 0.127115 22.0911 0.318903L16.8864 25.5011L22.0911 50.6833C22.1532 50.9376 22.0267 51.0022 21.8379 51.0022H13.9665C13.7756 51.0022 13.649 50.8751 13.5846 50.6833L9.52121 29.6446H8.25112V50.6833C8.25112 50.8751 8.12456 51.0022 7.9336 51.0022H0.317522V51Z" fill="#EB4E12"/>
<path d="M24.3137 51C24.1228 51 23.9962 50.8729 23.9962 50.6811V0.318903C23.9962 0.127115 24.1228 0 24.3137 0H31.9298C32.1208 0 32.2473 0.127115 32.2473 0.318903V50.6811C32.2473 50.8729 32.1208 51 31.9298 51H24.3137Z" fill="#EB4E12"/>
<path d="M35.1046 51C34.9137 51 34.7871 50.8729 34.7871 50.6811V0.318903C34.7871 0.127115 34.9137 0 35.1046 0H42.7207C42.9117 0 43.0382 0.127115 43.0382 0.318903V43.3508H50.3368C50.5277 43.3508 50.6543 43.4779 50.6543 43.6697V50.6833C50.6543 50.8751 50.5277 51.0022 50.3368 51.0022H35.1024L35.1046 51Z" fill="#EB4E12"/>
<path d="M61.4482 29.3257V43.3508H69.3818C69.5728 43.3508 69.6993 43.4779 69.6993 43.6697V50.6833C69.6993 50.8751 69.5728 51.0022 69.3818 51.0022H53.5146C53.3237 51.0022 53.1971 50.8751 53.1971 50.6833V0.318903C53.1971 0.127115 53.3237 0 53.5146 0H68.749C68.94 0 69.0665 0.127115 69.0665 0.318903V7.33255C69.0665 7.52433 68.94 7.65145 68.749 7.65145H61.4504V21.6765H67.4811C67.6721 21.6765 67.7987 21.8036 67.7987 21.9954V29.0091C67.7987 29.2008 67.6721 29.328 67.4811 29.328H61.4504L61.4482 29.3257Z" fill="#EB4E12"/>
<path d="M78.9052 0C79.0962 0 79.2228 0.0624426 79.2228 0.318903L81.4454 43.3508H82.7155L84.9359 0.318903C84.9359 0.0646727 85.0625 0 85.2535 0H92.8695C93.0605 0 93.1871 0.0624426 93.1871 0.318903L90.3938 50.6811C90.3938 50.9353 90.2672 51 90.0762 51H74.0803C73.8893 51 73.7627 50.9376 73.7627 50.6811L70.9716 0.318903C70.9716 0.0646727 71.0982 0 71.2892 0H78.9052Z" fill="#EB4E12"/>
<path d="M128.595 21.5449H127.742V24.3303H128.595V21.5449Z" fill="#EB4E12"/>
<path d="M128.595 26.188H127.742V29.5487H128.595V26.188Z" fill="#EB4E12"/>
<path d="M121.698 21.5449H121.411L121.152 26.6206H121.953L121.7 21.5449H121.698ZM121.698 21.5449H121.411L121.152 26.6206H121.953L121.7 21.5449H121.698ZM109.104 17V34.0959H135V17H109.104ZM117.21 31.1923C117.21 31.2391 117.184 31.2637 117.146 31.2637H113.726C113.686 31.2637 113.655 31.2369 113.655 31.1923V19.9036C113.655 19.8567 113.689 19.8322 113.726 19.8322H115.432C115.478 19.8322 115.503 19.859 115.503 19.9036V29.551H117.144C117.184 29.551 117.208 29.5777 117.208 29.6223V31.1923H117.21ZM123.969 31.2637H122.264C122.217 31.2637 122.193 31.2503 122.193 31.1923L122.049 28.3333H121.052L120.907 31.1923C120.907 31.2503 120.881 31.2637 120.836 31.2637H119.131C119.091 31.2637 119.06 31.2503 119.06 31.1923L119.686 19.9036C119.686 19.8456 119.719 19.8322 119.757 19.8322H123.345C123.392 19.8322 123.416 19.8456 123.416 19.9036L124.043 31.1923C124.043 31.2503 124.016 31.2637 123.972 31.2637H123.969ZM130.442 24.0895C130.442 24.8611 130 25.0908 129.771 25.1153V25.403C129.987 25.4298 130.442 25.6572 130.442 26.4288V28.9734C130.442 30.4051 130.155 31.2614 129.023 31.2614H125.963C125.917 31.2614 125.892 31.2347 125.892 31.1901V19.9013C125.892 19.8545 125.919 19.83 125.963 19.83H129.023C130.155 19.83 130.442 20.6863 130.442 22.1181V24.0872V24.0895ZM121.409 21.5449L121.149 26.6206H121.951L121.698 21.5449H121.411H121.409Z" fill="#EB4E12"/>
</g>
<defs>
<clipPath id="clip0_0_398">
<rect width="135" height="51" fill="white"/>
</clipPath>
</defs>
</svg>
