<svg width="78" height="25" viewBox="0 0 78 25" fill="none" xmlns="http://www.w3.org/2000/svg">
<path d="M41.9569 10.6788L42.317 7.82395L0.708862 13.6556L1.06891 7.97865L42.317 2.19858L41.9569 5.04877L78 0L77.8863 5.37691L41.9569 10.6788Z" fill="#EB4E12"/>
<g clip-path="url(#clip0_0_390)">
<path d="M41.9569 20.0544L42.317 17.1996L0.708862 23.0312L1.06891 17.3543L42.317 11.5742L41.9569 14.4244L78 9.37561L77.8863 14.7525L41.9569 20.0544Z" fill="#EB4E12"/>
<path d="M41.9569 20.0544L42.317 17.1996L0.708862 23.0312L1.06891 17.3543L42.317 11.5742L41.9569 14.4244L78 9.37561L77.8863 14.7525L41.9569 20.0544Z" fill="#EB4E12"/>
</g>
<path d="M41.9569 10.6788L42.317 7.82395L0.708862 13.6556L1.06891 7.97865L42.317 2.19858L41.9569 5.04877L78 0L77.8863 5.37691L41.9569 10.6788Z" fill="#EB4E12"/>
<defs>
<clipPath id="clip0_0_390">
<rect width="77.0637" height="15.001" fill="white" transform="translate(0.708862 9.37561)"/>
</clipPath>
</defs>
</svg>
