<svg width="26" height="23" viewBox="0 0 26 23" fill="none" xmlns="http://www.w3.org/2000/svg">
<path d="M25.2996 0V3.744H24.6488C23.106 3.744 21.8765 4.008 20.9605 4.536C20.0445 5.064 19.3695 5.904 18.9356 7.056C18.5499 8.16 18.357 9.576 18.357 11.304V16.704L16.6214 13.464C16.9589 13.272 17.3928 13.128 17.9231 13.032C18.5017 12.936 19.0561 12.888 19.5865 12.888C20.9364 12.888 22.0453 13.32 22.9131 14.184C23.8291 15 24.2872 16.152 24.2872 17.64C24.2872 19.032 23.8532 20.184 22.9854 21.096C22.1658 22.008 21.0328 22.464 19.5865 22.464C18.6704 22.464 17.8026 22.248 16.983 21.816C16.1634 21.384 15.4884 20.616 14.9581 19.512C14.4277 18.408 14.1626 16.824 14.1626 14.76V13.248C14.1626 9.744 14.5965 7.032 15.4643 5.112C16.3321 3.192 17.5615 1.872 19.1525 1.152C20.7435 0.383998 22.6238 0 24.7934 0H25.2996ZM11.2698 0V3.744H10.6189C9.07615 3.744 7.84673 4.008 6.9307 4.536C6.01466 5.064 5.33969 5.904 4.90578 7.056C4.52008 8.16 4.32723 9.576 4.32723 11.304V16.704L2.59158 13.464C2.92907 13.272 3.36298 13.128 3.89332 13.032C4.47187 12.936 5.02631 12.888 5.55665 12.888C6.90659 12.888 8.01548 13.32 8.8833 14.184C9.79934 15 10.2574 16.152 10.2574 17.64C10.2574 19.032 9.82344 20.184 8.95562 21.096C8.13601 22.008 7.00302 22.464 5.55665 22.464C4.64061 22.464 3.77279 22.248 2.95318 21.816C2.13357 21.384 1.45859 20.616 0.928256 19.512C0.39792 18.408 0.132751 16.824 0.132751 14.76V13.248C0.132751 9.744 0.566663 7.032 1.43449 5.112C2.30231 3.192 3.53172 1.872 5.12273 1.152C6.71374 0.383998 8.59403 0 10.7636 0H11.2698Z" fill="white"/>
</svg>
